<svg xmlns="http://www.w3.org/2000/svg" width="189" height="51">
  <path fill="#939AFF" d="M31.822 34.168V33.16a5.831 5.831 0 0 1-2.562-.609c-.84-.406-1.428-1.057-1.764-1.953L18.382 5.86c-.812.364-1.652.665-2.52.903a33 33 0 0 1-2.646.609l.756 2.016L5.74 28.582c-.28.672-.553 1.267-.819 1.785a6.482 6.482 0 0 1-.924 1.365c-.35.392-.784.707-1.302.945s-1.169.399-1.953.483v1.008A75.889 75.889 0 0 1 5.782 34a88.083 88.083 0 0 1 5.418.168V33.16a7.795 7.795 0 0 1-1.197-.294 6.798 6.798 0 0 1-1.218-.525 3.295 3.295 0 0 1-.924-.735 1.395 1.395 0 0 1-.357-.924c0-.56.077-1.022.231-1.386.154-.364.301-.742.441-1.134l2.142-5.922h8.358l1.428 4.158c.112.28.245.623.399 1.029l.462 1.218c.154.406.28.805.378 1.197.098.392.147.714.147.966 0 .728-.35 1.274-1.05 1.638-.7.364-1.778.602-3.234.714v1.008A149.388 149.388 0 0 1 24.22 34h1.764a96.786 96.786 0 0 1 4.032.084c.672.028 1.274.056 1.806.084ZM18.088 20.644h-7.182l3.654-9.828h.084l3.444 9.828Zm24.878 13.524v-.84c-.812 0-1.526-.161-2.142-.483-.616-.322-.924-.987-.924-1.995V4.096c-1.036.28-2.247.49-3.633.63-1.386.14-2.807.238-4.263.294v.84c1.036 0 1.785.189 2.247.567.462.378.693 1.057.693 2.037V30.85c0 1.008-.308 1.673-.924 1.995-.616.322-1.316.483-2.1.483v.84a42.263 42.263 0 0 1 2.184-.126c.812-.028 1.904-.042 3.276-.042.728 0 1.358.007 1.89.021a205.9 205.9 0 0 1 2.604.084c.364.014.728.035 1.092.063ZM50.218 44.5c1.512 0 2.947-.154 4.305-.462 1.358-.308 2.548-.777 3.57-1.407 1.022-.63 1.834-1.414 2.436-2.352.602-.938.903-2.051.903-3.339 0-.812-.091-1.561-.273-2.247-.182-.686-.476-1.267-.882-1.743-.406-.476-.938-.847-1.596-1.113-.658-.266-1.477-.399-2.457-.399-1.204 0-2.233.028-3.087.084a44.58 44.58 0 0 0-2.184.189c-.602.07-1.106.133-1.512.189a7.956 7.956 0 0 1-1.071.084c-.924 0-1.617-.098-2.079-.294-.462-.196-.693-.588-.693-1.176 0-.448.175-.805.525-1.071.35-.266.679-.483.987-.651.588.224 1.197.406 1.827.546.63.14 1.351.21 2.163.21 1.176 0 2.226-.154 3.15-.462.924-.308 1.701-.735 2.331-1.281a5.633 5.633 0 0 0 1.449-1.911 5.447 5.447 0 0 0 .504-2.31c0-1.148-.35-2.226-1.05-3.234.28-.252.602-.476.966-.672a2.442 2.442 0 0 1 1.176-.294c.308 0 .532.098.672.294.14.196.21.406.21.63a.677.677 0 0 1-.252.546c-.168.14-.322.238-.462.294l.084.504a24.795 24.795 0 0 1 1.596-.609 12.825 12.825 0 0 1 1.638-.441c0-.168.007-.35.021-.546.014-.196.021-.364.021-.504 0-.672-.203-1.253-.609-1.743-.406-.49-.931-.735-1.575-.735-.364 0-.742.091-1.134.273-.392.182-.77.406-1.134.672a20.92 20.92 0 0 0-1.05.819c-.336.28-.63.518-.882.714a10.12 10.12 0 0 0-2.478-1.386c-.924-.364-1.988-.546-3.192-.546-1.176 0-2.226.154-3.15.462-.924.308-1.701.735-2.331 1.281a5.633 5.633 0 0 0-1.449 1.911 5.447 5.447 0 0 0-.504 2.31c0 .98.189 1.834.567 2.562.378.728 1.001 1.386 1.869 1.974-1.008.476-1.806 1.071-2.394 1.785-.588.714-.882 1.659-.882 2.835 0 .644.112 1.204.336 1.68.224.476.616.868 1.176 1.176a10.903 10.903 0 0 0-1.428 1.848c-.392.644-.588 1.386-.588 2.226 0 1.456.679 2.625 2.037 3.507 1.358.882 3.311 1.323 5.859 1.323Zm.798-16.296c-.952 0-1.659-.399-2.121-1.197-.462-.798-.693-1.939-.693-3.423s.231-2.625.693-3.423c.462-.798 1.169-1.197 2.121-1.197s1.659.399 2.121 1.197c.462.798.693 1.939.693 3.423s-.231 2.625-.693 3.423c-.462.798-1.169 1.197-2.121 1.197Zm.756 12.516c-1.204 0-2.205-.063-3.003-.189s-1.435-.315-1.911-.567c-.476-.252-.819-.56-1.029-.924a2.476 2.476 0 0 1-.315-1.26c0-.224.014-.448.042-.672.028-.224.042-.462.042-.714 1.708-.28 3.353-.49 4.935-.63a57.02 57.02 0 0 1 5.019-.21c1.512 0 2.604.168 3.276.504.672.336 1.008.868 1.008 1.596 0 .42-.126.819-.378 1.197-.252.378-.686.707-1.302.987s-1.442.497-2.478.651c-1.036.154-2.338.231-3.906.231Zm19.894-6.048c1.26 0 2.478-.189 3.654-.567a9.717 9.717 0 0 0 3.129-1.659 8.42 8.42 0 0 0 2.205-2.688c.56-1.064.84-2.268.84-3.612 0-1.344-.28-2.548-.84-3.612a8.42 8.42 0 0 0-2.205-2.688 9.717 9.717 0 0 0-3.129-1.659 11.867 11.867 0 0 0-3.654-.567c-1.26 0-2.478.189-3.654.567a9.717 9.717 0 0 0-3.129 1.659 8.42 8.42 0 0 0-2.205 2.688c-.56 1.064-.84 2.268-.84 3.612 0 1.344.28 2.548.84 3.612a8.42 8.42 0 0 0 2.205 2.688 9.717 9.717 0 0 0 3.129 1.659c1.176.378 2.394.567 3.654.567Zm.42-1.596a3.533 3.533 0 0 1-1.722-.462c-.56-.308-1.057-.777-1.491-1.407-.434-.63-.777-1.435-1.029-2.415-.252-.98-.378-2.128-.378-3.444 0-2.016.336-3.542 1.008-4.578.672-1.036 1.596-1.554 2.772-1.554.588 0 1.162.154 1.722.462.56.308 1.057.777 1.491 1.407.434.63.777 1.435 1.029 2.415.252.98.378 2.128.378 3.444 0 2.016-.336 3.542-1.008 4.578-.672 1.036-1.596 1.554-2.772 1.554Zm21.266 1.092v-.84c-1.512-.056-2.576-.308-3.192-.756-.616-.448-.924-1.176-.924-2.184v-8.442c.168-.224.392-.455.672-.693.28-.238.574-.448.882-.63a7.89 7.89 0 0 1 .903-.462c.294-.126.539-.189.735-.189.476 0 .861.119 1.155.357.294.238.441.609.441 1.113 0 .28-.133.553-.399.819a5.795 5.795 0 0 1-.693.609l.504.336c.252-.14.581-.315.987-.525.406-.21.84-.42 1.302-.63l1.386-.63c.462-.21.861-.399 1.197-.567 0-1.26-.203-2.212-.609-2.856-.406-.644-1.127-.966-2.163-.966-.644 0-1.246.105-1.806.315a8.5 8.5 0 0 0-1.596.798c-.504.322-.994.679-1.47 1.071l-1.428 1.176v-2.94c-.364.056-.889.133-1.575.231-.686.098-1.414.189-2.184.273-.77.084-1.512.161-2.226.231s-1.267.105-1.659.105v.84c.924.056 1.645.308 2.163.756.518.448.777 1.176.777 2.184v8.316c0 1.008-.259 1.736-.777 2.184-.518.448-1.239.7-2.163.756v.84a103.189 103.189 0 0 1 11.76 0Zm10.318-21.84c.896 0 1.659-.308 2.289-.924.63-.616.945-1.386.945-2.31 0-.924-.315-1.694-.945-2.31-.63-.616-1.393-.924-2.289-.924-.896 0-1.659.308-2.289.924-.63.616-.945 1.386-.945 2.31 0 .924.315 1.694.945 2.31.63.616 1.393.924 2.289.924Zm5.796 21.84v-.84c-.812 0-1.526-.161-2.142-.483-.616-.322-.924-.987-.924-1.995V21.4c0-.644.014-1.302.042-1.974l.084-2.058c-1.092.28-2.338.49-3.738.63s-2.856.238-4.368.294v.84c1.064 0 1.834.168 2.31.504.476.336.714.868.714 1.596v9.618c0 1.008-.308 1.673-.924 1.995-.616.322-1.316.483-2.1.483v.84a42.263 42.263 0 0 1 2.184-.126c.812-.028 1.904-.042 3.276-.042.728 0 1.358.007 1.89.021a205.9 205.9 0 0 1 2.604.084c.364.014.728.035 1.092.063Zm7.084.504c.56 0 1.141-.112 1.743-.336a11.748 11.748 0 0 0 1.806-.861 14.51 14.51 0 0 0 1.701-1.155c.532-.42 1.008-.812 1.428-1.176l-.882-.966a7.773 7.773 0 0 1-1.575 1.218c-.574.336-1.113.504-1.617.504-.952 0-1.617-.238-1.995-.714-.378-.476-.567-1.33-.567-2.562V19.72h5.796v-1.428h-5.796v-5.67h-.84a16.98 16.98 0 0 1-1.092 2.205 9.945 9.945 0 0 1-1.449 1.911 7.161 7.161 0 0 1-1.89 1.386c-.714.364-1.519.574-2.415.63v.966h2.982v10.668c0 1.428.413 2.499 1.239 3.213.826.714 1.967 1.071 3.423 1.071Zm27.692-.504v-.84c-.308 0-.623-.035-.945-.105a2.479 2.479 0 0 1-.882-.378 2.032 2.032 0 0 1-.651-.756c-.168-.322-.252-.735-.252-1.239v-7.896c0-1.624-.497-2.919-1.491-3.885-.994-.966-2.345-1.449-4.053-1.449-1.232 0-2.338.238-3.318.714s-1.96 1.134-2.94 1.974V4.096c-1.036.28-2.24.49-3.612.63-1.372.14-2.744.238-4.116.294v.84c1.848 0 2.772.7 2.772 2.1v22.89c0 1.008-.308 1.673-.924 1.995-.616.322-1.316.483-2.1.483v.84a42.263 42.263 0 0 1 2.184-.126c.812-.028 1.904-.042 3.276-.042.728 0 1.358.007 1.89.021a174.89 174.89 0 0 1 2.478.084c.308.014.602.035.882.063v-.84c-.308 0-.623-.035-.945-.105a2.479 2.479 0 0 1-.882-.378 2.032 2.032 0 0 1-.651-.756c-.168-.322-.252-.735-.252-1.239v-8.904a6.386 6.386 0 0 1 1.617-1.176 4.139 4.139 0 0 1 1.911-.462c.896 0 1.673.217 2.331.651.658.434.987 1.127.987 2.079v7.812c0 .504-.084.917-.252 1.239a2.12 2.12 0 0 1-.63.756 2.28 2.28 0 0 1-.861.378c-.322.07-.637.105-.945.105v.84a24.345 24.345 0 0 1 1.89-.126 96.043 96.043 0 0 1 3.234-.042c.728 0 1.358.007 1.89.021a174.89 174.89 0 0 1 2.478.084c.308.014.602.035.882.063Zm32.998 0v-.84c-.308 0-.623-.035-.945-.105a2.479 2.479 0 0 1-.882-.378 2.032 2.032 0 0 1-.651-.756c-.168-.322-.252-.735-.252-1.239v-7.56c0-.672-.091-1.344-.273-2.016a5.397 5.397 0 0 0-.882-1.827c-.406-.546-.945-.987-1.617-1.323-.672-.336-1.512-.504-2.52-.504-.7 0-1.33.063-1.89.189a7.666 7.666 0 0 0-1.596.546 8.184 8.184 0 0 0-1.449.882c-.462.35-.959.735-1.491 1.155-.504-1.148-1.176-1.897-2.016-2.247-.84-.35-1.848-.525-3.024-.525a6.932 6.932 0 0 0-3.171.777 12.692 12.692 0 0 0-2.751 1.869V17.62c-1.036.252-2.24.413-3.612.483-1.372.07-2.744.133-4.116.189v.84c1.848 0 2.772.7 2.772 2.1v9.618c0 .504-.084.917-.252 1.239a2.032 2.032 0 0 1-.651.756 2.474 2.474 0 0 1-.903.378 4.93 4.93 0 0 1-1.008.105v.84c.56-.056 1.232-.098 2.016-.126A96.043 96.043 0 0 1 149.31 34c1.456 0 2.541.014 3.255.042.714.028 1.267.07 1.659.126v-.84a3.15 3.15 0 0 1-.756-.105 2.112 2.112 0 0 1-.777-.378 2.228 2.228 0 0 1-.609-.756c-.168-.322-.252-.735-.252-1.239v-8.862c.448-.42.98-.791 1.596-1.113.616-.322 1.232-.483 1.848-.483.952 0 1.68.315 2.184.945.504.63.756 1.309.756 2.037v7.476c0 .504-.084.917-.252 1.239a2.12 2.12 0 0 1-.63.756 2.296 2.296 0 0 1-.819.378 3.71 3.71 0 0 1-.861.105v.84c.42-.056 1.015-.098 1.785-.126.77-.028 1.841-.042 3.213-.042 1.456 0 2.541.014 3.255.042.714.028 1.281.07 1.701.126v-.84c-.252 0-.518-.035-.798-.105a2.112 2.112 0 0 1-.777-.378 2.228 2.228 0 0 1-.609-.756c-.168-.322-.252-.735-.252-1.239v-9.24c.476-.364.98-.658 1.512-.882a4.183 4.183 0 0 1 1.638-.336c1.008 0 1.799.266 2.373.798.574.532.861 1.386.861 2.562v7.098c0 .504-.084.917-.252 1.239a2.228 2.228 0 0 1-.609.756 2.1 2.1 0 0 1-.798.378 3.55 3.55 0 0 1-.819.105v.84c.392-.056.966-.098 1.722-.126A92.13 92.13 0 0 1 171.99 34c.728 0 1.358.007 1.89.021a174.89 174.89 0 0 1 2.478.084c.308.014.602.035.882.063Zm4.088-21.84c.896 0 1.659-.308 2.289-.924.63-.616.945-1.386.945-2.31 0-.924-.315-1.694-.945-2.31-.63-.616-1.393-.924-2.289-.924-.896 0-1.659.308-2.289.924-.63.616-.945 1.386-.945 2.31 0 .924.315 1.694.945 2.31.63.616 1.393.924 2.289.924Zm5.796 21.84v-.84c-.812 0-1.526-.161-2.142-.483-.616-.322-.924-.987-.924-1.995V21.4c0-.644.014-1.302.042-1.974l.084-2.058c-1.092.28-2.338.49-3.738.63s-2.856.238-4.368.294v.84c1.064 0 1.834.168 2.31.504.476.336.714.868.714 1.596v9.618c0 1.008-.308 1.673-.924 1.995-.616.322-1.316.483-2.1.483v.84a42.263 42.263 0 0 1 2.184-.126c.812-.028 1.904-.042 3.276-.042.728 0 1.358.007 1.89.021a205.9 205.9 0 0 1 2.604.084c.364.014.728.035 1.092.063Z"/>
</svg>