<svg xmlns="http://www.w3.org/2000/svg" width="135" height="51"><path fill="#7EE787" d="m13.004 30.251-.076.057-.082.05c-1.426.985-3.555 1.644-5.301 1.644h-.003c-2.56-.055-3.493-.96-3.544-3.427.055-2.84 1.005-3.715 4.202-3.917l4.414-.207.198-.009.192-.005v5.814Zm8.038 1.399a1.043 1.043 0 0 0-1.022-.772 2.08 2.08 0 0 0-.403.05 8.414 8.414 0 0 1-1.59.251c-.999.05-1.176-.34-1.24-1.464v-15.37a1.348 1.348 0 0 0-.49-.925l-.1-.065c-.031-.025-.064-.057-.106-.079-.834-.49-2.22-.885-3.4-1.184l-.087-.025a19.328 19.328 0 0 0-4.475-.517c-.9 0-1.71.069-2.036.109-.672.065-2.486.368-3.096.576-.177.058-.75.33-.77.87.011.28.328 1.18.328 1.18.206.629.425.782.822.863.32.036 1.008-.108 1.467-.188 1.183-.219 1.956-.302 2.512-.308.716-.01 1.616-.02 2.672.132 2.007.309 2.78.925 2.78.925v5.969l-.177.006-4.285.108C2.615 21.972-.038 24.247 0 28.83c-.008 2.08.644 3.75 1.886 4.83 1.153 1.014 2.845 1.548 4.88 1.548h.01c2.337 0 4.347-.72 6.306-2.273l.186-.143.096.215c.472 1.04 1.276 1.711 2.379 1.993.495.137 1.06.208 1.782.208.185 0 .372-.011.538-.03.654-.09 1.524-.209 2.493-.666.53-.252.907-.565.879-1.127-.021-.494-.393-1.736-.393-1.736Zm63.343 3.457H82.3c-.32 0-.589-.106-.754-.29-.168-.196-.243-.461-.243-.823v-19.75c-.014-.371.081-.642.27-.822.166-.168.412-.241.744-.241h1.885c.35 0 .588.068.773.224.189.16.29.42.283.735l.022.523.02.445.294-.324c.884-.952 2.4-2.09 4.581-2.09.309 0 .844.047 1.314.134.391.072.54.47.511.676a1.5 1.5 0 0 1-.017.261l-.31 1.993c-.021.346-.339.602-.605.602a3.475 3.475 0 0 1-.531-.056c-.228-.034-.483-.083-.933-.083-1.456 0-3.084.967-4.17 2.467l-.036.044v15.262c0 .341-.082.609-.252.802-.166.196-.438.311-.76.311M71.523 21.74h-9.572c.131-4.833 1.974-6.808 5.002-6.808 2.947 0 4.615 1.62 4.615 5.407 0 .298 0 1.05-.045 1.401m-4.48-9.885c-5.359 0-9.395 3.73-9.395 12.214 0 7.777 3.642 11.596 10.493 11.596 1.084 0 2.373-.126 3.606-.378.193-.036.391-.09.584-.131.633-.18 1.252-.405 1.853-.674.43-.164.761-.495.786-.911a18.804 18.804 0 0 0-.454-1.858c-.164-.408-.534-.665-.914-.642-.13 0-1.972.4-2.079.433a13.528 13.528 0 0 1-3.295.43c-4.873 0-6.324-2.33-6.324-7.122v-.352H74.67a.804.804 0 0 0 .725-.7c0-.051.005-.108.013-.166.042-.838.07-1.718.07-2.428 0-5.887-2.858-9.311-8.434-9.311M97.255 44h-.137a9.91 9.91 0 0 1-1.985-.175c-.374-.065-.512-.552-.439-1.218 0 0 .046-.71.152-1.211.1-.511.342-.743.611-.743h.077l.207.01c.123.008.297.03.459.044.347.044.696.07 1.045.08 2.489-.028 3.831-.938 4.783-3.244l1.148-2.804.108-.297.04-.124-.04-.134-7.664-20.278a.752.752 0 0 1-.045-.264.52.52 0 0 1 .116-.344.508.508 0 0 1 .364-.147h2.905c.422 0 .737.223.83.55l5.047 14.526.336.972.347-.972 5.217-14.419c.11-.403.437-.663.818-.663h.021l.079.006h2.41c.194 0 .339.038.44.12.099.084.14.214.133.31 0 .139-.034.255-.075.368l-8.574 23.018C104.121 42.095 101.754 44 97.255 44m34.557-8.949c-.5 0-.912-.234-1.146-.663l-4.58-7.076-.163-.237-.155.237-4.575 7.069c-.242.436-.655.67-1.16.67l-.074-.01h-2.448a.745.745 0 0 1-.466-.136.543.543 0 0 1-.191-.441c0-.203.07-.419.19-.595l6.63-10.062.076-.103-.077-.103-6.107-9.418c-.108-.175-.162-.323-.158-.463 0-.396.363-.635.711-.639h2.298c.496 0 .884.215 1.055.553l4.3 6.527.151.225.147-.225 4.277-6.487c.191-.376.584-.593 1.033-.593h2.355c.34 0 .711.243.711.636 0 .143-.053.29-.16.45l-6.108 9.434-.072.103.072.103 6.609 10.04c.142.198.212.405.212.608a.557.557 0 0 1-.185.45.774.774 0 0 1-.478.137h-2.433l-.091.01m-99.24.057c-1.082 0-2.125-.174-3.03-.504-.83-.29-1.486-.704-1.953-1.219-1.302-1.432-1.417-3.216-1.434-5.572V5.307c0-.132.057-.267.142-.366.771-.864 1.768-1.508 2.965-1.914.074-.027.124-.027.184-.027.096 0 .348.017.555.218.185.192.272.453.27.796v23.943c.008 1.246.306 2.236.854 2.854.467.516 1.224.777 2.186.777.234 0 .498-.019.813-.057a11.668 11.668 0 0 0 1.818-.438.875.875 0 0 1 .359-.075c.38 0 .712.27.84.67 0 0 .34 1.15.382 1.692.028.468-.391.783-.778.919-.492.198-2.231.81-4.173.81m21.02-3.434c-.127-.402-.459-.67-.85-.67a.956.956 0 0 0-.355.07c-.646.209-1.62.476-2.535.494l-.098.015c-.987 0-1.73-.27-2.203-.791-.446-.49-.767-1.289-.793-2.783v-.083l.124-11.852h4.846c.26 0 .475-.03.675-.183.241-.19.28-.502.274-.674v-1.493c.005-.32-.09-.552-.27-.7-.216-.154-.453-.167-.636-.167h-4.889v-7.38c0-.348-.086-.604-.266-.793a.82.82 0 0 0-.555-.22c-.061 0-.114 0-.206.027-.283.104-1.045.37-1.879.957-.288.21-.582.472-.876.77a.575.575 0 0 0-.129.355l-.116 6.207H40.35c-.244 0-.51.063-.7.262-.187.206-.234.461-.234.722v1.363c.004.294-.01.55.218.798.257.237.509.216.8.227h2.352l-.224 11.149.005.478c.008 2.363.123 4.154 1.43 5.602 1.005 1.091 2.833 1.719 5.006 1.727 1.966 0 3.494-.522 4.193-.81.373-.158.795-.46.777-.927 0-.445-.382-1.697-.382-1.697"/></svg>