<svg xmlns="http://www.w3.org/2000/svg" width="100" height="51"><g fill="#7EE787" fill-rule="nonzero">
  <path d="M91.266 25.837c-.085-.18-.125-.271-.172-.357-1.25-2.323-2.497-4.649-3.757-6.966-.128-.231-.112-.37.062-.568 1.988-2.27 3.966-4.55 5.947-6.827a.603.603 0 0 0 .158-.306c-.579.148-1.158.293-1.736.443-2.403.623-4.806 1.243-7.206 1.873-.224.058-.325-.005-.437-.187-1.363-2.226-2.735-4.448-4.106-6.67a.903.903 0 0 0-.297-.325c-.11.593-.223 1.186-.33 1.779l-1.143 6.286c-.042.227-.099.452-.118.68-.02.216-.132.296-.334.357-2.83.869-5.659 1.746-8.488 2.623a.938.938 0 0 0-.378.206l6.976 2.71c-.085.066-.14.117-.203.157-1.447.915-2.897 1.826-4.338 2.746-.173.109-.31.125-.504.039-1.728-.76-3.463-1.505-5.193-2.262-.778-.34-1.476-.79-2.02-1.44-1.231-1.47-.989-3.144.651-4.167.537-.335 1.147-.584 1.753-.778 2.773-.883 5.557-1.734 8.338-2.59.234-.07.343-.173.385-.419.371-2.098.756-4.192 1.142-6.287.207-1.12.317-2.27.875-3.293a5.49 5.49 0 0 1 .776-1.114c1.103-1.198 2.646-1.244 3.813-.102.394.385.733.84 1.027 1.304a558.667 558.667 0 0 1 3.809 6.179c.15.246.283.294.558.223 3.103-.813 6.21-1.613 9.314-2.415.64-.166 1.288-.226 1.945-.106 1.433.262 2.06 1.326 1.574 2.678-.22.615-.602 1.137-1.03 1.626-2.166 2.492-4.329 4.984-6.503 7.468-.177.204-.182.35-.058.577 1.297 2.39 2.582 4.784 3.873 7.176.309.573.544 1.166.552 1.825.014 1.496-1.103 2.72-2.625 2.937-.853.123-1.644-.055-2.442-.295a745.552 745.552 0 0 0-5.844-1.739c-.18-.054-.25-.122-.28-.313-.226-1.34-.47-2.678-.706-4.017-.006-.037.004-.076.01-.16l6.71 1.81"/>
  <path d="M87.475 45.365c-1.754-.003-3.509-.012-5.265-.004-.23 0-.361-.066-.49-.258-2.077-3.092-4.163-6.177-6.248-9.263-.066-.1-.137-.194-.256-.359l-1.326 9.86h-4.594c.054-.436.101-.859.157-1.282.448-3.345.898-6.694 1.35-10.04.43-3.198.857-6.396 1.294-9.595a.418.418 0 0 1 .157-.266c1.581-1.006 3.168-2.005 4.753-3.005.024-.014.056-.016.139-.04l-1.433 10.673.056.038 7.52-8.146.2 1.125c.177 1.017.348 2.034.539 3.049.038.204-.016.332-.156.473a2560.024 2560.024 0 0 0-4.818 4.949l-.216.231c.052.08.094.158.147.23L87.29 45.12c.05.07.122.124.185.185v.059m-54.453-9.868c-.07-.35-.12-.864-.28-1.344-.768-2.32-3.205-3.592-5.726-3.017-2.765.628-4.741 2.754-5.026 5.51-.212 2.04.911 4.006 3.001 4.743 1.684.595 3.305.346 4.809-.536 1.997-1.17 3.078-2.907 3.22-5.356h.002Zm-12.144 8.622c-.137.998-.268 1.938-.394 2.88-.168 1.25-.335 2.502-.497 3.754-.02.146-.065.211-.225.21-1.262-.004-2.524-.004-3.786-.006-.029 0-.057-.015-.125-.033.075-.592.15-1.184.23-1.775.28-2.077.556-4.152.838-6.227.324-2.372.58-4.756.993-7.113.734-4.174 4.356-7.771 8.609-8.667 2.464-.52 4.823-.279 6.975 1.078 2.147 1.35 3.378 3.312 3.658 5.78.397 3.489-.917 6.385-3.453 8.781-1.664 1.574-3.657 2.573-5.955 2.911-2.368.349-4.595-.037-6.592-1.401-.073-.05-.151-.094-.276-.172M18.82 24.285l-4.149 3.017c-.22-.34-.42-.679-.65-.995-.594-.812-1.332-1.418-2.407-1.492-.893-.061-1.656.227-2.265.87-.544.575-.615 1.394-.106 2.044a29.8 29.8 0 0 0 1.796 2.056c1.036 1.097 2.12 2.154 3.15 3.258.936 1.004 1.682 2.13 1.913 3.503.275 1.632-.059 3.187-.849 4.621-1.461 2.655-3.764 4.197-6.803 4.677-1.342.213-2.68.17-3.99-.207-1.739-.5-2.946-1.611-3.726-3.185C.46 41.898.25 41.31 0 40.714l4.5-2.353c.051.122.088.224.137.32.256.5.466 1.03.782 1.49.94 1.366 2.456 1.781 3.997 1.108.394-.175.775-.42 1.1-.7.993-.86 1.178-2.058.444-3.14-.422-.623-.95-1.181-1.463-1.74-1.228-1.331-2.506-2.622-3.706-3.977-.825-.936-1.387-2.026-1.565-3.279a5.514 5.514 0 0 1 .814-3.807c1.809-2.86 4.44-4.35 7.919-4.226 1.982.07 3.562.976 4.788 2.481.362.446.703.91 1.074 1.394m33.603 15.36c-.23 1.723-.448 3.36-.674 4.997-.012.083-.078.196-.15.229-3.425 1.549-7.934 1.333-10.746-1.788-1.511-1.676-2.145-3.666-2.05-5.88.22-5.126 4.567-9.6 9.767-10.224 3.038-.366 5.703.437 7.76 2.742 1.401 1.57 2.05 3.448 1.954 5.518-.063 1.367-.282 2.73-.456 4.09-.247 1.928-.517 3.855-.778 5.781-.008.068-.023.137-.038.223h-4.097c.055-.443.105-.876.162-1.309.297-2.225.623-4.447.882-6.676.162-1.387.06-2.766-.588-4.051-.691-1.368-1.851-2.091-3.375-2.248-3.154-.327-6.156 1.815-6.828 4.849-.444 2.002.256 3.921 1.888 4.983 1.59 1.035 3.294 1.038 5.027.366.88-.34 1.628-.877 2.34-1.603m17.25-12.276-.56 4.15c-.867 0-1.715-.005-2.564.003-.688.004-1.316.438-1.524 1.066-.08.245-.11.509-.145.767-.431 3.187-.857 6.373-1.285 9.562-.11.802-.214 1.607-.322 2.423H59.01c.08-.612.155-1.207.236-1.798.276-2.067.553-4.131.833-6.196.243-1.787.46-3.577.746-5.358.382-2.387 2.812-4.507 5.276-4.61 1.177-.051 2.356-.01 3.573-.01M92.5 45.34v-1.76h-.009l-.706 1.76h-.226l-.706-1.76h-.01v1.758h-.356v-2.107h.548l.644 1.601.633-1.601h.544v2.108H92.5Zm-3.128-1.826v1.825h-.356v-1.825h-.676v-.282h1.706v.282h-.674m-64.84-22.188h1.06l-.25-1.564-.81 1.564Zm1.224 1.011h-1.759l-.559 1.07h-1.245l2.747-5.017h1.201l.935 5.017h-1.154l-.166-1.07m6.293-2.936h-.627l-.21 1.157h.625c.378 0 .68-.242.68-.7 0-.303-.19-.457-.468-.457ZM30.53 18.39h1.647c.86 0 1.463.502 1.463 1.365 0 1.084-.785 1.814-1.901 1.814h-.71l-.333 1.836h-1.07l.904-5.015m6.751 2.936h1.058l-.25-1.564-.81 1.564h.002Zm1.222 1.011h-1.757l-.559 1.07h-1.245l2.747-5.017h1.2l.936 5.017h-1.155l-.167-1.07m6.955.892c-.362.162-.762.26-1.162.26-1.359 0-2.213-.998-2.213-2.245 0-1.593 1.375-2.936 3.006-2.936.407 0 .776.096 1.078.258l-.15 1.204c-.227-.244-.589-.414-1.043-.414-.935 0-1.765.827-1.765 1.785 0 .731.468 1.3 1.206 1.3.455 0 .891-.171 1.185-.407l-.142 1.195m6.55-1.844h-2.234l-.363 2.022h-1.07l.904-5.017h1.072l-.362 1.984h2.234l.361-1.984h1.073l-.905 5.017h-1.072l.362-2.022m3.93 2.022.907-5.017h2.845l-.18 1.01h-1.776l-.18.974h1.63l-.18 1.011h-1.631l-.181 1.01h1.773l-.18 1.012H55.94"/>
</g></svg>