<svg xmlns="http://www.w3.org/2000/svg" width="189" height="51">
<g fill="#FFA28B" fill-rule="nonzero">
  <path d="M45.338 10.184c8.95 0 15.48 6.367 15.48 14.995 0 8.627-6.53 14.915-15.48 14.93-2.845 0-5.474-.694-7.987-2.083l5.875-7.222-.298-.111a7.67 7.67 0 0 1-.586-.265l.13.064c.835.37 1.695.574 2.595.574 3.792 0 6.027-2.532 6.027-5.808 0-3.275-2.235-5.88-6.027-5.88-3.177 0-5.648 2.34-8.498 5.723l-.002-.001-.063.078-.068.08-5.846 7.126-.013-.016c-4.759 5.145-9.022 7.726-14.522 7.726-8.95 0-15.48-6.312-15.48-14.915 0-8.604 6.53-14.995 15.48-14.995 5.137 0 9.763 2.555 14.088 7.24l-6.04 7.215c-1.686-2.001-3.315-3.63-5.064-4.521l5.946-7.124-.365-.238-.502-.311-6.028 7.269-.24-.078a5.987 5.987 0 0 0-1.731-.257c-3.793 0-6.052 2.572-6.052 5.88 0 3.307 2.26 5.807 6.052 5.807 3.05 0 5.792-2.276 8.387-5.357l.243-.29 6.064-7.251c4.495-4.958 9.138-7.848 14.165-7.98l.36-.004Zm-3.062 20.218-5.888 7.054c-1.768-1.115-3.483-2.582-5.183-4.4l5.891-7.038c1.72 1.945 3.396 3.537 5.18 4.384ZM79.61 30.283a2.397 2.397 0 0 0-.846-1.91A8.602 8.602 0 0 0 75.786 27a16.756 16.756 0 0 1-5.589-2.54 4.798 4.798 0 0 1-1.9-3.995 4.984 4.984 0 0 1 2.18-4.17 8.996 8.996 0 0 1 5.588-1.598 8.349 8.349 0 0 1 5.589 1.821 5.46 5.46 0 0 1 2.075 4.49v.08h-4.04a3.03 3.03 0 0 0-.965-2.333 3.83 3.83 0 0 0-2.699-.886 4.053 4.053 0 0 0-2.586.734 2.398 2.398 0 0 0-.91 1.902 2.04 2.04 0 0 0 .918 1.661A13.422 13.422 0 0 0 76.8 23.58a13.066 13.066 0 0 1 5.205 2.525 5.251 5.251 0 0 1 1.772 4.13 4.944 4.944 0 0 1-2.107 4.21 9.148 9.148 0 0 1-5.589 1.542 10.118 10.118 0 0 1-5.915-1.75 5.471 5.471 0 0 1-2.46-4.905v-.088h4.144a3.2 3.2 0 0 0 1.134 2.725c.94.632 2.063.935 3.193.862a4.121 4.121 0 0 0 2.595-.703c.56-.444.872-1.132.838-1.845zm16.19 3.203a5.225 5.225 0 0 1-1.812 1.87 5.358 5.358 0 0 1-6.387-.91c-.915-1.066-1.373-2.685-1.373-4.858v-9.323h4.152v9.37a4.07 4.07 0 0 0 .566 2.398c.41.501 1.038.775 1.685.734a4.27 4.27 0 0 0 1.716-.32c.467-.21.869-.54 1.166-.958V20.265h4.167v15.442h-3.552l-.328-2.22zm20.654-5.072a8.838 8.838 0 0 1-1.597 5.512 5.24 5.24 0 0 1-4.423 2.085 5.026 5.026 0 0 1-2.155-.447 4.495 4.495 0 0 1-1.597-1.327v7.414h-4.152V20.265h3.753l.247 1.822a4.996 4.996 0 0 1 1.645-1.558 4.484 4.484 0 0 1 2.251-.551 5.137 5.137 0 0 1 4.447 2.244 9.966 9.966 0 0 1 1.597 5.896l-.016.296zm-4.168-.32a7.588 7.588 0 0 0-.726-3.547 2.398 2.398 0 0 0-2.228-1.358 3.145 3.145 0 0 0-1.596.383 2.859 2.859 0 0 0-1.054 1.103v6.782c.249.427.615.774 1.054.999.497.24 1.045.358 1.596.343a2.397 2.397 0 0 0 2.22-1.19 6.26 6.26 0 0 0 .71-3.195l.024-.32zm13.22 7.917a6.957 6.957 0 0 1-5.34-2.141 7.669 7.669 0 0 1-1.996-5.44v-.568a8.452 8.452 0 0 1 1.892-5.672c2.64-2.798 7.105-2.946 9.923-.327a7.259 7.259 0 0 1 1.74 5.097v2.268h-9.236v.088c.04.927.402 1.811 1.022 2.5a3.193 3.193 0 0 0 2.459.983 8.091 8.091 0 0 0 2.299-.28 10.582 10.582 0 0 0 1.996-.878l1.126 2.58a7.669 7.669 0 0 1-2.467 1.279 10.596 10.596 0 0 1-3.417.51zm-.374-12.782a2.181 2.181 0 0 0-1.829.887 4.6 4.6 0 0 0-.798 2.324l.04.072h5.11v-.367a3.352 3.352 0 0 0-.623-2.125 2.238 2.238 0 0 0-1.9-.831v.04zm17.212.615h-1.533a2.783 2.783 0 0 0-1.525.384c-.404.264-.72.642-.91 1.086v10.393h-4.151V20.265h3.888l.183 2.285a4.86 4.86 0 0 1 1.413-1.893 3.13 3.13 0 0 1 1.996-.68c.193-.001.385.015.575.048l.535.12-.471 3.7zm10.394 7.613a1.455 1.455 0 0 0-.662-1.19 6.826 6.826 0 0 0-2.46-.879 9.946 9.946 0 0 1-4.127-1.653 3.566 3.566 0 0 1-1.397-2.972 4.263 4.263 0 0 1 1.677-3.395 6.816 6.816 0 0 1 4.486-1.39 7.392 7.392 0 0 1 4.703 1.382 4.104 4.104 0 0 1 1.676 3.499v.088h-3.992a2.054 2.054 0 0 0-.59-1.518 2.395 2.395 0 0 0-1.74-.583 2.396 2.396 0 0 0-1.597.495c-.37.3-.583.754-.575 1.23a1.4 1.4 0 0 0 .607 1.174c.759.426 1.595.697 2.458.8a9.98 9.98 0 0 1 4.24 1.677 3.687 3.687 0 0 1 1.38 3.044 4.079 4.079 0 0 1-1.78 3.41 7.75 7.75 0 0 1-4.71 1.319c-1.764.09-3.5-.48-4.87-1.598a4.366 4.366 0 0 1-1.764-3.515v-.08h3.808a2.15 2.15 0 0 0 .798 1.798c.595.394 1.3.59 2.012.559.62.04 1.236-.124 1.757-.463.416-.273.667-.74.662-1.239zm13.205 4.554a6.939 6.939 0 0 1-5.333-2.141 7.669 7.669 0 0 1-1.996-5.44v-.568a8.49 8.49 0 0 1 1.884-5.672c2.64-2.798 7.105-2.946 9.924-.327a7.195 7.195 0 0 1 1.732 5.097v2.268h-9.22v.088c.037.926.396 1.81 1.013 2.5a3.192 3.192 0 0 0 2.467.983 8.036 8.036 0 0 0 2.291-.28 10.429 10.429 0 0 0 2.004-.878l1.126 2.58a7.75 7.75 0 0 1-2.467 1.279 10.645 10.645 0 0 1-3.425.51zm-.367-12.782a2.164 2.164 0 0 0-1.829.887 4.61 4.61 0 0 0-.798 2.324l.048.072h5.11v-.367a3.352 3.352 0 0 0-.623-2.125 2.237 2.237 0 0 0-1.908-.831v.04zm14.33-6.75v3.786h2.603v2.924h-2.603v7.869c-.043.46.092.921.375 1.286.264.263.626.403.998.384.187 0 .374-.012.559-.04.186-.03.37-.07.55-.12l.36 3.012c-.4.14-.812.249-1.23.327-.427.069-.86.104-1.293.104a4.438 4.438 0 0 1-3.32-1.182 5.21 5.21 0 0 1-1.166-3.755v-7.885h-2.252v-2.924h2.252v-3.787h4.167zM90.389 15.137h-2.22l-.431 1.254h-1.277l2.155-5.832h1.302l2.171 5.832h-1.285l-.415-1.254zm-1.909-.919h1.597l-.798-2.293-.799 2.293zm8.351.128a2.301 2.301 0 0 1-.487 1.542c-.502.555-1.3.74-1.996.463a1.339 1.339 0 0 1-.495-.375v2.077h-1.245V12.06h1.142l.071.511c.13-.185.303-.335.503-.439a1.43 1.43 0 0 1 .687-.152 1.596 1.596 0 0 1 1.35.623c.342.481.514 1.064.486 1.654l-.016.088zm-1.27-.088a1.931 1.931 0 0 0-.223-.999.727.727 0 0 0-.678-.383 1.021 1.021 0 0 0-.487.112.8.8 0 0 0-.32.311v1.902c.08.12.19.217.32.28.155.067.325.1.495.095.27.02.53-.109.678-.335.158-.274.233-.588.216-.903v-.08zm4.807 2.133a3.638 3.638 0 0 1-.12-.312 1.66 1.66 0 0 1-.064-.335c-.133.21-.31.386-.519.52-.236.154-.515.23-.798.215-.41.026-.817-.1-1.142-.352a1.2 1.2 0 0 1-.399-.958 1.112 1.112 0 0 1 .527-.983 2.808 2.808 0 0 1 1.557-.351h.71v-.344a.673.673 0 0 0-.175-.487.75.75 0 0 0-.527-.176.717.717 0 0 0-.48.144.455.455 0 0 0-.167.383H97.55a1.056 1.056 0 0 1 .519-.942 2.394 2.394 0 0 1 1.437-.4c.485-.023.965.114 1.365.392.351.264.549.687.527 1.126v1.79a2.6 2.6 0 0 0 .056.567c.03.183.081.362.151.535l-1.237-.032zm-1.158-.799c.21.005.417-.047.599-.152a.795.795 0 0 0 .351-.351v-.615h-.71a.885.885 0 0 0-.615.191.585.585 0 0 0-.208.448.448.448 0 0 0 .16.351.64.64 0 0 0 .423.128zm5.158 0a.8.8 0 0 0 .542-.184.606.606 0 0 0 .2-.479h1.158c.013.43-.187.841-.535 1.094a2.132 2.132 0 0 1-1.373.448 2.1 2.1 0 0 1-1.597-.615 2.206 2.206 0 0 1-.575-1.598v-.12a2.237 2.237 0 0 1 .567-1.598c.839-.763 2.11-.83 3.026-.16.35.296.54.741.51 1.199h-1.157a.798.798 0 0 0-.2-.56.703.703 0 0 0-.55-.223.744.744 0 0 0-.711.368c-.149.285-.22.604-.208.926v.12c-.013.322.059.642.208.927.128.269.397.446.695.455zm3.872-2.988a1.598 1.598 0 0 1 2.395-.175c.313.391.465.89.423 1.39v2.572h-1.27v-2.58a1.045 1.045 0 0 0-.191-.72.725.725 0 0 0-.575-.215 1.193 1.193 0 0 0-.463.088.848.848 0 0 0-.327.247v3.196h-1.254v-6.263h1.27l-.008 2.46zm5.86 3.875a2.228 2.228 0 0 1-1.597-.607 2.038 2.038 0 0 1-.607-1.526v-.16a2.261 2.261 0 0 1 .575-1.598 1.958 1.958 0 0 1 1.54-.615 1.987 1.987 0 0 1 1.477.527c.365.385.555.902.527 1.43v.632h-2.802c.008.264.117.516.304.703.202.191.472.292.75.28.236.002.473-.025.703-.08.209-.065.412-.148.606-.248l.344.727a2.393 2.393 0 0 1-.75.36 3.506 3.506 0 0 1-1.07.175zm-.112-3.603a.68.68 0 0 0-.551.256 1.216 1.216 0 0 0-.256.647h1.597v-.104a.902.902 0 0 0-.192-.6.733.733 0 0 0-.598-.2zm71.044 4.01h-.678v2.125h-.44v-2.125h-.678v-.383h1.796v.383zm2.523.52-.703 1.597h-.239l-.727-1.677v1.67h-.43v-2.493h.542l.75 1.821.799-1.821h.519v2.508h-.44l-.071-1.605z"/>
</g></svg>