<svg xmlns="http://www.w3.org/2000/svg" width="116" height="51">
  <g fill-rule="evenodd" fill="#7EE787">
    <path d="M63.495 28.133h3.402v3.351h-3.402v-3.351Zm0 5.711h3.402v16.72h-3.402v-16.72ZM70.654 28.378h3.403V40.84h.067l5.137-6.996 3.95-.028-5.109 6.467 5.77 10.281h-3.719l-4.17-7.609-1.926 2.294v5.315h-3.403zM94.253 48.61h-.096a4.834 4.834 0 0 1-1.842 1.783c-.766.42-1.633.63-2.51.605-2.52 0-4.227-1.142-4.227-5.466V33.845h3.403v11.999c0 1.888.853 2.482 2.31 2.482a2.69 2.69 0 0 0 2.037-.798c.262-.268.463-.588.59-.939.126-.35.175-.724.143-1.095v-11.65h3.412v16.72h-3.22V48.61zM72.829 20.137h-.057a3.582 3.582 0 0 1-1.427 1.878 3.673 3.673 0 0 1-2.301.605c-3.968 0-5.55-3.267-5.55-9.016 0-7.42 2.656-8.572 5.234-8.572a4.004 4.004 0 0 1 2.298.6 3.915 3.915 0 0 1 1.535 1.788h.067V0h3.431v22.185h-3.23v-2.048zM69.743 7.704c-1.916 0-2.654 1.557-2.654 6.06 0 3.777.508 6.184 2.875 6.184s2.875-2.36 2.875-5.938c0-4.003-.47-6.306-3.086-6.306M90.781 18.7c0 .623.383 1.18.891 1.18.192.008.384-.021.566-.084v2.17a4.074 4.074 0 0 1-1.678.407c-1.514 0-2.77-.595-2.875-2.21h-.067a4.36 4.36 0 0 1-1.733 1.862 4.452 4.452 0 0 1-2.493.593c-2.713 0-4.419-1.491-4.419-4.72 0-3.73 1.64-4.503 3.95-5.25l2.644-.717c1.237-.34 1.994-.68 1.994-2.143 0-1.463-.527-2.464-2.33-2.464-2.27 0-2.587 1.586-2.587 3.21h-3.22c0-3.55 1.485-5.504 5.97-5.504 2.99 0 5.387 1.152 5.387 4.098V18.7zm-3.22-5.343c-.892.69-2.78 1.086-3.834 1.558a2.756 2.756 0 0 0-1.108 1.143 2.7 2.7 0 0 0-.281 1.557c0 1.397.69 2.52 2.108 2.52 2.05 0 3.067-1.529 3.067-3.984l.048-2.794zm5.491-7.892h2.339V.746h3.402v4.72h2.78v2.483h-2.78v9.979c0 1.302.384 1.775 1.553 1.775a7.12 7.12 0 0 0 1.227-.095v2.483c-.899.206-1.82.301-2.741.283-2.31 0-3.441-.623-3.441-4.04V7.949h-2.339V5.466zm21.324 13.09c0 .623.383 1.18.891 1.18.192.007.384-.022.566-.085v2.171a4.074 4.074 0 0 1-1.678.406c-1.514 0-2.77-.595-2.875-2.21h-.067a4.36 4.36 0 0 1-1.733 1.862 4.452 4.452 0 0 1-2.493.593c-2.713 0-4.419-1.491-4.419-4.72 0-3.729 1.64-4.503 3.95-5.249l2.644-.717c1.236-.34 1.994-.68 1.994-2.143 0-1.464-.537-2.493-2.339-2.493-2.271 0-2.587 1.586-2.587 3.21h-3.22c0-3.55 1.485-5.504 5.97-5.504 2.99 0 5.386 1.152 5.386 4.097l.01 9.601zm-3.21-5.344c-.892.69-2.78 1.086-3.834 1.558a2.757 2.757 0 0 0-1.109 1.143 2.702 2.702 0 0 0-.28 1.557c0 1.397.69 2.52 2.107 2.52 2.051 0 3.067-1.529 3.067-3.984l.048-2.794z"/>
    <path d="M11.396 4.3A25.744 25.744 0 0 1 25.642.002c6.8 0 13.323 2.687 18.132 7.469a25.428 25.428 0 0 1 7.51 18.03c0 5.044-1.504 9.975-4.321 14.168a25.613 25.613 0 0 1-11.508 9.392 25.776 25.776 0 0 1-14.815 1.451 25.688 25.688 0 0 1-13.13-6.979A25.456 25.456 0 0 1 .493 30.477a25.369 25.369 0 0 1 1.459-14.733A25.531 25.531 0 0 1 11.396 4.3Zm15.329 28.342h12.887V30.66H26.725v1.983Zm10.902-14.346c-.475-3.088.409-4.24.409-4.24l1.69-2.06-1.9.53a3.793 3.793 0 0 0-1.949-1.57 3.819 3.819 0 0 0-2.508-.018c-.814.276-1.51.82-1.973 1.54a3.762 3.762 0 0 0-.578 2.427L10.2 40.188s.085.368.399.208c.328-.179 1.15-1.004 3.615-3.483 1.315-1.322 3.097-3.113 5.52-5.527 2.356-2.342 6.278-2.144 6.278-2.144h4.018c5.413 0 8.471-5.157 7.597-10.946Zm-3.577-5.39a1.02 1.02 0 0 1 1.279.134 1.007 1.007 0 0 1-.335 1.646 1.022 1.022 0 0 1-1.109-.224 1.009 1.009 0 0 1 .165-1.556Z"/>
  </g>
</svg>