<svg xmlns="http://www.w3.org/2000/svg" width="189" height="51">
  <path fill="#939AFF" d="M56.496 31.158c0 5.146-.393 6.826-1.439 8.067a6.149 6.149 0 0 1-4.187 1.635l.393 3.061a9.632 9.632 0 0 0 6.533-2.437c1.875-1.953 2.529-4.653 2.529-8.797V13.23h-3.838v17.954l.009-.026ZM85.121 28.813l.174 5.85h-3.358l-.218-3.519h-.087a7.96 7.96 0 0 1-2.953 2.948 7.881 7.881 0 0 1-4.025 1.037c-3.314 0-7.274-1.865-7.274-9.395V13.19h3.838v11.902c0 4.082 1.221 6.826 4.701 6.826a5.516 5.516 0 0 0 3.052-.991 5.582 5.582 0 0 0 1.999-2.528 5.783 5.783 0 0 0 .349-1.997V13.208h3.838v15.605H85.121ZM92.354 20.206l-.174-7.037h3.445l.174 3.677h.087a8.31 8.31 0 0 1 3.171-3.137 8.22 8.22 0 0 1 4.323-1.033c5.094 0 8.932 4.398 8.932 10.908 0 7.715-4.614 11.524-9.595 11.524a7.33 7.33 0 0 1-3.687-.819 7.4 7.4 0 0 1-2.803-2.55h-.087v11.656h-3.794V20.171l.009.035h-.001Zm3.794 5.718a8.87 8.87 0 0 0 .174 1.592 5.98 5.98 0 0 0 2.091 3.285 5.89 5.89 0 0 0 3.657 1.281c4.056 0 6.402-3.369 6.402-8.286 0-4.302-2.224-7.979-6.271-7.979a6.076 6.076 0 0 0-3.72 1.41 6.164 6.164 0 0 0-2.071 3.419 6.408 6.408 0 0 0-.262 1.592v3.686ZM119.101 13.21l4.614 12.676 1.352 4.398h.087l1.352-4.478 4.187-12.587h4.056L129 28.516c-2.747 7.354-4.614 11.128-7.23 13.433a10.338 10.338 0 0 1-4.701 2.525l-.959-3.281a10.085 10.085 0 0 0 3.358-1.909 11.79 11.79 0 0 0 3.227-4.346 2.83 2.83 0 0 0 .305-.932 3.436 3.436 0 0 0-.262-1.021l-7.798-19.766h4.187l-.026-.009ZM144.822 7.04v6.158h5.486v2.973h-5.486V27.73c0 2.639.741 4.17 2.878 4.17a8.379 8.379 0 0 0 2.224-.264l.174 2.929a9.225 9.225 0 0 1-3.402.528 5.248 5.248 0 0 1-2.251-.357 5.294 5.294 0 0 1-1.893-1.279c-1.09-1.152-1.483-3.061-1.483-5.586v-11.7H137.8v-2.973h3.271V8.052l3.751-1.012ZM157.379 24.638c.087 5.278 3.402 7.451 7.231 7.451a13.666 13.666 0 0 0 5.835-1.108l.654 2.789a16.821 16.821 0 0 1-6.978 1.328c-6.49 0-10.371-4.346-10.371-10.82s3.751-11.568 9.891-11.568c6.882 0 8.722 6.158 8.722 10.107-.006.609-.05 1.217-.131 1.821h-14.853Zm11.243-2.788c.044-2.481-1.003-6.342-5.312-6.342-3.881 0-5.574 3.633-5.879 6.342h11.199-.009.001ZM177.944 19.899l-.174-6.695h3.358l.131 4.214h.174c.96-2.885 3.271-4.698 5.836-4.698.368-.005.734.039 1.09.132v3.677a5.7 5.7 0 0 0-1.308-.132c-2.704 0-4.614 2.085-5.137 5.005a11.14 11.14 0 0 0-.174 1.821v11.436h-3.796v-14.76ZM37.194 3.154a2.998 2.998 0 0 1-.425 1.672 2.953 2.953 0 0 1-1.275 1.152 2.928 2.928 0 0 1-3.238-.505 2.98 2.98 0 0 1-.871-1.486 3 3 0 0 1 .095-1.724A2.97 2.97 0 0 1 32.508.884a2.93 2.93 0 0 1 3.733.209c.576.533.918 1.274.952 2.061h.001ZM20.005 38.114c-7.85 0-14.706-2.876-18.265-7.134a19.504 19.504 0 0 0 7.069 9.473 19.244 19.244 0 0 0 11.2 3.6c4.013 0 7.927-1.258 11.2-3.6a19.504 19.504 0 0 0 7.069-9.473c-3.567 4.258-10.423 7.134-18.273 7.134ZM20.003 10.419c7.85 0 14.706 2.877 18.265 7.134a19.504 19.504 0 0 0-7.069-9.473 19.244 19.244 0 0 0-11.2-3.6 19.244 19.244 0 0 0-11.2 3.6 19.504 19.504 0 0 0-7.069 9.473c3.567-4.249 10.423-7.134 18.273-7.134ZM9.228 46.393a3.77 3.77 0 0 1-.536 2.109 3.726 3.726 0 0 1-1.608 1.452 3.684 3.684 0 0 1-4.082-.638 3.758 3.758 0 0 1-.975-4.047 3.743 3.743 0 0 1 1.299-1.739 3.693 3.693 0 0 1 4.704.268 3.76 3.76 0 0 1 1.198 2.596v-.001ZM2.635 9.456a2.167 2.167 0 0 1-1.227-.318 2.19 2.19 0 0 1-.845-.952A2.219 2.219 0 0 1 .934 5.77c.292-.32.672-.546 1.091-.649a2.175 2.175 0 0 1 2.276.841 2.21 2.21 0 0 1-.156 2.784 2.171 2.171 0 0 1-1.511.709l.001.001Z"/>
  </svg>