<svg xmlns="http://www.w3.org/2000/svg" width="189" height="51"><path fill="#FFF" fill-rule="evenodd" d="M81.946 28.372h12.416l-6.558-10.904-12.057 19.693h-5.483l14.664-23.626a3.468 3.468 0 0 1 2.84-1.539c1.134-.008 2.2.55 2.862 1.497l14.705 23.668h-5.483l-2.582-4.403H84.708l-2.737-4.386m56.968 4.386V12.235h-4.66v22.544c-.001.633.25 1.24.693 1.678.446.47 1.057.732 1.695.73h21.18l2.762-4.404h-21.694m-77.017-3.69c4.521 0 8.187-3.774 8.187-8.43 0-4.654-3.666-8.428-8.187-8.428H41.53V37.16h4.652V16.646h15.43c2.163 0 3.918 1.807 3.918 4.035s-1.755 4.034-3.919 4.034H48.488L62.386 37.16h6.754l-9.336-8.068h2.093M12.92 37.16h14.07c6.56-.175 11.791-5.701 11.791-12.459 0-6.757-5.23-12.283-11.791-12.459H12.92c-4.398-.117-8.512 2.231-10.745 6.135a12.781 12.781 0 0 0 0 12.649c2.233 3.903 6.347 6.252 10.745 6.134m13.752-4.386H13.23c-4.228-.14-7.584-3.71-7.584-8.064 0-4.355 3.356-7.924 7.584-8.065h13.442c2.858-.094 5.54 1.421 6.997 3.956a8.274 8.274 0 0 1 0 8.218c-1.457 2.534-4.139 4.05-6.997 3.955m88.382 4.386h14.362l2.721-4.386h-16.766c-2.858.095-5.54-1.421-6.997-3.955a8.274 8.274 0 0 1 0-8.218c1.457-2.535 4.139-4.05 6.997-3.956h13.646l2.753-4.403h-16.716c-4.399-.117-8.513 2.231-10.745 6.135a12.781 12.781 0 0 0 0 12.649c2.232 3.903 6.346 6.252 10.745 6.134m56.92-4.386c-3.508.001-6.589-2.397-7.544-5.871h19.894l2.737-4.395H164.43c.953-3.476 4.035-5.875 7.544-5.87h13.653l2.73-4.404h-16.701c-6.561.175-11.792 5.702-11.792 12.459s5.23 12.284 11.792 12.459h14.362l2.73-4.387h-16.782"/></svg>