<svg xmlns="http://www.w3.org/2000/svg" width="104" height="51"><path fill="#FFF" fill-rule="evenodd" d="M103.82 0 52.47 51H0V0h103.82ZM14.14 9.486h-.022c-4.352 0-7.976 1.4-10.222 3.706-1.565 1.61-2.41 3.656-2.444 5.92-.057 3.114 1.092 5.322 3.507 7.086 2.04 1.485 4.65 2.448 6.95 3.155 2.837.873 5.153 1.632 5.125 3.248a2.385 2.385 0 0 1-.673 1.585c-.708.725-1.792.997-3.293 1.027-2.896.06-5.041-.391-8.46-2.398l-3.159 6.222c3.416 1.928 7.042 2.896 11.162 2.896l.927-.006c3.586-.065 6.496-.918 8.809-2.766.132-.105.25-.212.374-.32l-.388 1.986 8.651-.027 1.552-3.946c1.632.553 3.488.859 5.458.859 1.92 0 3.725-.29 5.326-.812l1.082 3.899 15.522.015.038-8.997h3.303c7.983 0 12.703-4.034 12.703-10.8-.003-7.536-4.59-10.818-14.356-10.818H51.36l.034 23.947-8.928-23.955H33.61L25.99 30.2c-.81-5.091-6.11-6.848-10.281-8.164-2.754-.878-5.677-2.17-5.647-3.598.023-1.172 1.563-2.259 4.625-2.097 2.055.11 3.87.275 7.48 2.006l3.549-6.142c-3.292-1.664-7.843-2.715-11.575-2.718Zm23.88 10.466 3.185 10.178a9.583 9.583 0 0 1-2.828.533l-.384.007-.394-.007a9.203 9.203 0 0 1-2.878-.562l3.237-10.149h.062Zm24.194-3.292c3.001 0 5.398.993 5.398 4.037-.002 3.15-2.397 4.142-5.398 4.142H59.96V16.66h2.254Z"/></svg>