<svg xmlns="http://www.w3.org/2000/svg" width="189" height="51">
<g fill="#7EE787" fill-rule="evenodd">
  <path d="M24.623 17.387h-5.009v-5.575h-1.969v5.575h-5.009v1.98h5.009v5.574h1.969v-5.574h5.009z"/>
  <path d="M14.552 26.487h-4.488v-4.99H8.366v4.99H3.879v1.522h4.487V33h1.698v-4.991h4.488z"/>
  <path d="M33.38 8.635h-4.487V3.62h-1.7v5.015h-4.487v1.52h4.487v4.968h1.7v-4.968h4.487z"/>
  <path d="M22.429 32.025h-3.045v-3.48h-1.451v3.48h-3.044v1.344h3.044v3.482h1.451v-3.482h3.045z"/>
  <path d="M14.552 8.634h-4.54V3.62H8.42v5.014H3.879v1.476H8.42v5.013h1.592V10.11h4.54z"/>
  <path d="M36.828 17.705h-3.044v-3.48h-1.452v3.48h-3.044v1.344h3.044v3.481h1.452v-3.481h3.044z"/>
  <path d="M33.38 26.487h-4.487v-4.99h-1.7v4.99h-4.487v1.522h4.487V33h1.7v-4.991h4.487z"/>
  <path d="M18.116.062v3.415h-3.011V4.51h3.011v3.415h1.083V4.51h3.013V3.477h-3.013V.062zM7.505 17.839H4.482V14.49H3.419v3.349H.396v1.077l3.023-.02v3.368h1.063V18.89l3.023-.019z"/>
  <path d="M53.227 37.434c.368.226.767.339 1.195.339.867 0 1.36-.407 1.36-1.049 0-.39-.15-.689-.454-.88-.256-.161-.548-.258-.856-.377-.312-.119-.463-.247-.463-.393 0-.18.172-.283.504-.283.317 0 .685.125 1.124.351v-.723a2.623 2.623 0 0 0-1.17-.288c-.79 0-1.3.428-1.3 1.016 0 .639.424.934 1.29 1.245.302.106.458.175.458.386 0 .205-.176.314-.514.314-.388 0-.74-.17-1.174-.444v.786zm17.797-1.482c0-.635.412-1.083.982-1.083.57 0 .984.448.984 1.083 0 .634-.413 1.078-.984 1.078-.57 0-.982-.444-.982-1.078m-.887 0c0 .52.187.974.54 1.315.347.336.786.505 1.33.505s.988-.169 1.335-.505c.353-.34.54-.79.54-1.315 0-.527-.187-.973-.54-1.321-.347-.336-.79-.5-1.336-.5-.543 0-.982.164-1.329.5-.353.348-.54.794-.54 1.32M89.157 37.711h.863v-1.45h1.28v-.659h-1.28v-.766h1.366v-.648h-2.229zM107.468 37.711h.908v-2.868h1.139v-.655h-3.185v.655h1.138zM124.799 37.742h.352l.782-2.204.776 2.204h.358l1.397-3.555h-.904l-.664 1.925-.675-1.925h-.576l-.675 1.914-.669-1.914h-.898zM142.918 36.422l.535-1.342.483 1.342h-1.018zm-1.442 1.289h.92l.275-.686h1.482l.247.686h.913l-1.342-3.523h-.993l-1.502 3.523zm19.084-2.08h-.413v-.819h.413c.311 0 .475.148.475.407 0 .28-.153.412-.475.412zm-1.274 2.08h.86v-1.435c.035 0 .065-.005.101-.005.338 0 .49.11.624.424l.44 1.016h.973l-.55-1.208c-.102-.227-.238-.375-.409-.444.415-.19.601-.464.601-.85 0-.706-.449-1.022-1.372-1.022h-1.268v3.524zM176.569 37.711h2.344v-.66h-1.482v-.841h1.377v-.655h-1.377v-.719h1.441v-.648h-2.303z"/>
  <path d="M99.522 24.971c2.353 0 3.702-1.38 3.702-3.84 0-2.418-1.357-3.869-3.473-3.869-.921 0-1.794.326-2.433.625v6.648c.778.292 1.504.436 2.204.436Zm-2.204-9.463c1.186-.478 2.24-.62 2.914-.62 3.364 0 5.637 2.421 5.637 6.217 0 3.937-2.388 6.237-6.6 6.237-1.461 0-2.894-.289-4.398-.811l-.072-17.41h2.519v6.387ZM116.339 29.528h2.493V6.677h-2.493zM135.42 27.39c-3.839-.382-5.71-3.145-5.602-6.422.116-3.538 2.353-6.049 5.764-6.049 3.578 0 5.65 2.71 5.472 6.708h-8.612c.206 2.215 1.505 3.264 3.28 3.403 1.477.118 3.565-.225 4.695-.952v2.436c-1.49.742-3.04 1.07-4.996.875m-2.824-7.64h5.724c-.065-1.559-.883-2.368-2.341-2.464-1.468-.097-2.89.87-3.383 2.464m45.418 5.63c1.58 0 2.647-.824 2.647-2.671v-7.56h2.52v7.878c0 2.633-1.996 4.239-5.168 4.239-3.17 0-5.166-1.606-5.166-4.24v-7.877h2.518v7.56c0 1.847 1.07 2.672 2.65 2.672M77.957 24.97a8.77 8.77 0 0 0 2.157-.28l.047-6.596c-.807-.567-1.585-.833-2.432-.833-2.117 0-3.473 1.451-3.473 3.87 0 2.459 1.349 3.873 3.701 3.84m.254 2.37c-4.212.014-6.601-2.3-6.601-6.237 0-3.796 2.275-6.216 5.636-6.216 1.136 0 2.074.257 2.915.815v-.87h2.518l-.07 11.697c-1.06.471-2.8.806-4.398.811m79.327-2.37a8.848 8.848 0 0 0 2.156-.282l.047-6.595c-.807-.567-1.586-.833-2.432-.833-2.118 0-3.473 1.451-3.473 3.87 0 2.459 1.347 3.844 3.702 3.84m.252 2.37c-4.212.014-6.6-2.3-6.6-6.237 0-3.796 2.273-6.216 5.636-6.216 1.134 0 2.073.257 2.915.815v-.87h2.518l-.073 11.697c-1.058.471-2.798.806-4.396.811M52.869 9.946h2.494v7.247H62.1v2.381h-6.737v7.859h-2.494v-7.859h-6.737v-2.381h6.737zM187.042 16.522h.194c.22 0 .403-.082.403-.293 0-.15-.105-.299-.403-.299-.086 0-.146.006-.194.014v.578Zm0 .945h-.265V15.76c.14-.02.273-.041.472-.041.254 0 .418.055.518.129.099.075.153.19.153.354 0 .224-.146.36-.325.416v.011c.144.029.246.164.277.416.04.265.081.367.106.422h-.278c-.04-.055-.08-.21-.112-.435-.04-.219-.148-.3-.36-.3h-.186v.735Zm.28-2.183c-.658 0-1.196.579-1.196 1.292 0 .727.538 1.298 1.202 1.298.665.009 1.196-.57 1.196-1.292 0-.72-.53-1.298-1.196-1.298h-.005Zm.006-.237c.817 0 1.468.678 1.468 1.529 0 .864-.651 1.536-1.473 1.536-.82 0-1.482-.672-1.482-1.536 0-.85.663-1.53 1.482-1.53h.005Z"/>
</g></svg>